<?xml version="1.0" encoding="UTF-8" standalone="no"?><!DOCTYPE svg PUBLIC "-//W3C//DTD SVG 1.1//EN" "http://www.w3.org/Graphics/SVG/1.1/DTD/svg11.dtd">
<svg width="100%" height="100%" viewBox="0 0 2000 400" version="1.1" xmlns="http://www.w3.org/2000/svg"
     xml:space="preserve"
     style="fill-rule:evenodd;clip-rule:evenodd;stroke-linecap:round;stroke-linejoin:round;stroke-miterlimit:1.5;"><g id="Layer5"></g><g transform="matrix(260,0,0,260,1800.96,306.738)"></g><text x="616.613px" y="306.738px" style="font-family:'Arial-BoldMT', 'Arial', sans-serif;font-weight:700;font-size:260px;fill:#fff;">CO-NECT</text><g><g id="Layer3"><g><g><path d="M242.299,332.219c-34.21,1.787 -37.904,-36.908 -37.262,-36.282" style="fill:none;stroke:#fff;stroke-width:16.75px;"/></g><path d="M253.924,151.274c0,-0 -50.828,-1.533 -49.526,35.742" style="fill:none;stroke:#fff;stroke-width:16.75px;"/><g><path d="M266.772,332.357c33.228,1.736 38.143,-37.127 37.262,-36.282" style="fill:none;stroke:#fff;stroke-width:16.75px;"/></g><g><circle cx="255.513" cy="122.853" r="27.905" style="fill:none;stroke:#fff;stroke-width:16.74px;"/></g><path d="M204.398,187.016l0.639,108.921" style="fill:none;stroke:#fff;stroke-width:16.75px;"/><g><path d="M369.648,150.772l-15.928,-0c-0,-0 -51.102,3.294 -49.799,40.569" style="fill:none;stroke:#fff;stroke-width:16.75px;"/></g><g><path d="M303.921,191.341l0.114,104.734" style="fill:none;stroke:#fff;stroke-width:16.75px;"/></g><path d="M242.299,332.219l24.473,0.138" style="fill:none;stroke:#fff;stroke-width:16.75px;"/><rect x="249.849" y="188.921" width="9.573" height="9.497" style="fill:#fff;stroke:#fff;stroke-width:13.38px;"/></g></g><g><path d="M481.348,332.445c34.21,1.788 37.905,-36.907 37.262,-36.282" style="fill:none;stroke:#fff;stroke-width:16.75px;"/><path d="M469.723,151.5c0,-0 50.829,-1.533 49.526,35.742" style="fill:none;stroke:#fff;stroke-width:16.75px;"/><path d="M456.875,332.583c-33.228,1.737 -38.142,-37.127 -37.262,-36.282" style="fill:none;stroke:#fff;stroke-width:16.75px;"/><circle cx="468.134" cy="123.079" r="27.905" style="fill:none;stroke:#fff;stroke-width:16.74px;"/><path d="M519.249,187.242l-0.639,108.921" style="fill:none;stroke:#fff;stroke-width:16.75px;"/><path d="M369.648,150.772c-0,-0 51.381,3.52 50.079,40.795" style="fill:none;stroke:#fff;stroke-width:16.75px;"/><path d="M419.727,191.567l-0.115,104.734" style="fill:none;stroke:#fff;stroke-width:16.75px;"/><path d="M481.348,332.445l-24.473,0.138" style="fill:none;stroke:#fff;stroke-width:16.75px;"/><rect x="464.225" y="189.147" width="9.573" height="9.497" style="fill:#fff;stroke:#fff;stroke-width:13.38px;"/></g><g id="Layer4"><g><circle cx="361.481" cy="119.265" r="27.905" style="fill:none;stroke:#fff;stroke-width:16.74px;"/></g><g><rect x="357.976" y="188.419" width="9.573" height="9.497" style="fill:#fff;stroke:#fff;stroke-width:13.38px;"/></g><g><path d="M358.393,217.449l9.011,-0l-2.073,76.217l2.073,-76.217l10.262,54.442l-12.335,21.775l0.115,-0l-4.979,-0l-12.335,-21.775l10.261,-54.442l2.074,76.217" style="fill:#fff;stroke:#fff;stroke-width:4.78px;"/></g></g></g></svg>