<?xml version="1.0" encoding="UTF-8" standalone="no"?><!DOCTYPE svg PUBLIC "-//W3C//DTD SVG 1.1//EN" "http://www.w3.org/Graphics/SVG/1.1/DTD/svg11.dtd">
<svg width="100%" height="100%" viewBox="0 0 1024 768" version="1.1" xmlns="http://www.w3.org/2000/svg"
     xml:space="preserve"
     style="fill-rule:evenodd;clip-rule:evenodd;stroke-linecap:round;stroke-linejoin:round;stroke-miterlimit:1.5;"><g transform="matrix(200,0,0,200,964.832,680.996)"></g><text x="53.797px" y="680.996px" style="font-family:'Arial-BoldMT', 'Arial', sans-serif;font-weight:700;font-size:200px;fill:#1e74b1;">CO-NECT</text><g><g id="Layer3"><g><g><path d="M322.727,478.268c-54.174,2.854 -60.024,-58.917 -59.007,-57.918" style="fill:none;stroke:#1e74b1;stroke-width:26.66px;"/></g><path d="M341.136,189.418c-0,0 -80.49,-2.447 -78.428,57.057" style="fill:none;stroke:#1e74b1;stroke-width:26.63px;"/><g><path d="M361.481,478.488c52.619,2.772 60.4,-59.267 59.007,-57.918" style="fill:none;stroke:#1e74b1;stroke-width:26.66px;"/></g><g><ellipse cx="343.652" cy="144.05" rx="44.188" ry="44.545" style="fill:none;stroke:#1e74b1;stroke-width:26.62px;"/></g><path d="M262.708,246.475l1.012,173.875" style="fill:none;stroke:#1e74b1;stroke-width:26.63px;"/><g><path d="M524.39,188.618l-25.223,-0c-0,-0 -80.922,5.257 -78.86,64.761" style="fill:none;stroke:#1e74b1;stroke-width:26.63px;"/></g><g><path d="M420.307,253.379l0.182,167.191" style="fill:none;stroke:#1e74b1;stroke-width:26.63px;"/></g><path d="M322.727,478.268l38.754,0.22" style="fill:none;stroke:#1e74b1;stroke-width:26.63px;"/><rect x="334.683" y="249.516" width="15.16" height="15.16" style="fill:#1e74b1;stroke:#1e74b1;stroke-width:21.27px;"/></g></g><g><path d="M701.273,478.629c54.174,2.854 60.024,-58.917 59.007,-57.918" style="fill:none;stroke:#1e74b1;stroke-width:26.66px;"/><path d="M682.864,189.78c0,-0 80.49,-2.447 78.428,57.056" style="fill:none;stroke:#1e74b1;stroke-width:26.63px;"/><path d="M662.519,478.85c-52.619,2.772 -60.4,-59.268 -59.007,-57.918" style="fill:none;stroke:#1e74b1;stroke-width:26.66px;"/><ellipse cx="680.348" cy="144.411" rx="44.188" ry="44.545" style="fill:none;stroke:#1e74b1;stroke-width:26.62px;"/><path d="M761.292,246.836l-1.012,173.875" style="fill:none;stroke:#1e74b1;stroke-width:26.63px;"/><path d="M524.39,188.618c0,-0 81.365,5.619 79.303,65.122" style="fill:none;stroke:#1e74b1;stroke-width:26.63px;"/><path d="M603.693,253.74l-0.182,167.192" style="fill:none;stroke:#1e74b1;stroke-width:26.63px;"/><path d="M701.273,478.629l-38.754,0.221" style="fill:none;stroke:#1e74b1;stroke-width:26.63px;"/><rect x="674.158" y="249.877" width="15.16" height="15.16" style="fill:#1e74b1;stroke:#1e74b1;stroke-width:21.27px;"/></g><g id="Layer4"><g><ellipse cx="511.458" cy="138.322" rx="44.188" ry="44.545" style="fill:none;stroke:#1e74b1;stroke-width:26.62px;"/></g><g><rect x="505.907" y="248.715" width="15.16" height="15.16" style="fill:#1e74b1;stroke:#1e74b1;stroke-width:21.27px;"/></g><g><path d="M506.567,295.057l14.27,-0l-3.283,121.668l3.283,-121.668l16.249,86.908l-19.532,34.76l0.182,-0l-7.885,-0l-19.533,-34.76l16.249,-86.908l3.284,121.668" style="fill:#1e74b1;stroke:#1e74b1;stroke-width:7.6px;"/></g></g></g></svg>