<?xml version="1.0" encoding="UTF-8" standalone="no"?><!DOCTYPE svg PUBLIC "-//W3C//DTD SVG 1.1//EN" "http://www.w3.org/Graphics/SVG/1.1/DTD/svg11.dtd">
<svg width="100%" height="100%" viewBox="0 0 1024 768" version="1.1" xmlns="http://www.w3.org/2000/svg"
     xml:space="preserve"
     style="fill-rule:evenodd;clip-rule:evenodd;stroke-linecap:round;stroke-linejoin:round;stroke-miterlimit:1.5;"><g><g id="Layer3"><g><g><path d="M279.388,621.983c-68.191,3.563 -75.556,-73.568 -74.275,-72.321" style="fill:none;stroke:#fff;stroke-width:33.39px;"/></g><path d="M302.561,261.302c-0,0 -101.318,-3.055 -98.722,71.246" style="fill:none;stroke:#fff;stroke-width:33.39px;"/><g><path d="M328.17,622.258c66.235,3.462 76.03,-74.006 74.276,-72.321" style="fill:none;stroke:#fff;stroke-width:33.39px;"/></g><g><circle cx="305.728" cy="204.651" r="55.623" style="fill:none;stroke:#fff;stroke-width:33.38px;"/></g><path d="M203.839,332.548l1.274,217.114" style="fill:none;stroke:#fff;stroke-width:33.39px;"/><g><path d="M533.234,260.302l-31.75,0c0,0 -101.861,6.565 -99.265,80.867" style="fill:none;stroke:#fff;stroke-width:33.39px;"/></g><g><path d="M402.219,341.169l0.228,208.768" style="fill:none;stroke:#fff;stroke-width:33.39px;"/></g><path d="M279.388,621.983l48.782,0.275" style="fill:none;stroke:#fff;stroke-width:33.39px;"/><rect x="294.438" y="336.345" width="19.082" height="18.93" style="fill:#fff;stroke:#fff;stroke-width:26.66px;"/></g></g><g><path d="M755.888,622.434c68.192,3.563 75.556,-73.568 74.276,-72.321" style="fill:none;stroke:#fff;stroke-width:33.39px;"/><path d="M732.716,261.753c-0,0 101.317,-3.055 98.721,71.246" style="fill:none;stroke:#fff;stroke-width:33.39px;"/><path d="M707.106,622.709c-66.235,3.462 -76.03,-74.006 -74.276,-72.321" style="fill:none;stroke:#fff;stroke-width:33.39px;"/><circle cx="729.548" cy="205.102" r="55.623" style="fill:none;stroke:#fff;stroke-width:33.38px;"/><path d="M831.437,332.999l-1.273,217.114" style="fill:none;stroke:#fff;stroke-width:33.39px;"/><path d="M533.234,260.302c0,0 102.419,7.017 99.823,81.318" style="fill:none;stroke:#fff;stroke-width:33.39px;"/><path d="M633.057,341.62l-0.228,208.768" style="fill:none;stroke:#fff;stroke-width:33.39px;"/><path d="M755.888,622.434l-48.782,0.275" style="fill:none;stroke:#fff;stroke-width:33.39px;"/><rect x="721.756" y="336.796" width="19.082" height="18.93" style="fill:#fff;stroke:#fff;stroke-width:26.66px;"/></g><g id="Layer4"><g><circle cx="516.956" cy="197.499" r="55.623" style="fill:none;stroke:#fff;stroke-width:33.38px;"/></g><g><rect x="509.969" y="335.345" width="19.082" height="18.93" style="fill:#fff;stroke:#fff;stroke-width:26.66px;"/></g><g><path d="M510.8,393.211l17.962,-0l-4.133,151.924l4.133,-151.924l20.454,108.521l-24.587,43.403l0.23,0l-9.926,0l-24.587,-43.403l20.454,-108.521l4.133,151.924" style="fill:#fff;stroke:#fff;stroke-width:9.53px;"/></g></g></g></svg>